<?xml version="1.0" encoding="utf-8"?>
<!-- Generator: Adobe Illustrator 24.0.0, SVG Export Plug-In . SVG Version: 6.00 Build 0)  -->
<svg version="1.1" id="레이어_1" xmlns="http://www.w3.org/2000/svg" xmlns:xlink="http://www.w3.org/1999/xlink" x="0px"
	 y="0px" viewBox="0 0 800 800" style="enable-background:new 0 0 800 800;" xml:space="preserve">
<style type="text/css">
	.st0{fill:#12297E;}
	.st1{fill:#F9FAFA;}
	.st2{fill:#FFDC05;}
</style>
<path class="st0" d="M372.23,170.77c11.32-7.95,26.18-9.32,39.35-6.26c12.21,3.05,24.01,11.24,28.11,23.61
	c16.78,2.81,33.81,7.63,47.62,17.99c11.4,8.59,19.51,20.96,24.25,34.29c7.47,21.92,7.71,45.45,6.26,68.34
	c-0.08,18.95-0.4,38.22,4.34,56.77c1.45,4.34,3.53,10.12,8.83,10.6c5.78-0.88,10.12-5.38,13.97-9.4
	c12.93-15.02,22.65-32.44,34.69-48.1c2.97-3.37,5.7-7.31,9.8-9.48c1.2-0.64,2.57-0.88,3.93-0.64c4.9,4.66,6.75,11.8,6.58,18.47
	c0.56,11.72-2.97,23.05-5.14,34.37c10.28,2.49,20.88,6.99,27.38,15.82c8.27,11.24,8.67,26.18,6.42,39.43
	c-0.16,2.25-1.77,5.06,0.16,6.99c4.9,6.1,7.47,14.29,5.78,22.08c-1.04,5.86-4.34,10.92-7.79,15.66c-1.37,1.28-0.48,3.13-0.32,4.74
	c1.85,9.4-0.96,18.95-5.22,27.3c9.8,10.6,17.51,23.53,20.56,37.74c0.4,2.65,2.41,4.5,3.69,6.75c4.58,7.55,8.19,16.22,7.39,25.3
	c-0.48,6.1-3.93,11.48-9.23,14.53c-24.25,13.97-49.39,26.74-75.97,35.65c-35.33,12.13-72.43,18.79-109.61,22.24
	c-35.89,2.81-72.03,3.85-107.93,0.16c-20.56-1.93-41.03-5.14-61.19-9.72c-16.38-3.53-32.52-7.95-48.42-13.33
	c-24.89-7.95-49.14-17.99-72.67-29.23c-3.69-1.85-7.71-3.21-10.84-5.94c-5.06-4.18-9.07-10.12-9.07-16.78
	c-0.24-8.59,4.18-16.38,8.99-23.13c1.61-2.33,3.85-4.34,5.14-6.83c2.25-7.15,4.42-14.37,6.5-21.6c1.85-5.94,7.15-10.12,12.85-12.21
	c-4.42-7.47-7.07-16.38-5.46-25.05c-6.99-3.21-14.37-6.91-18.71-13.57c-3.53-4.98-4.34-11.48-2.81-17.35
	c1.69-6.18,4.66-11.96,8.75-16.86c-5.22-9.96-9.56-21.12-7.95-32.6c1.28-9.64,7.39-18.07,15.34-23.45
	c5.46-4.02,11.72-6.91,17.99-9.4c-0.88-8.91-0.8-17.83-0.72-26.82c0.32-6.18,0.72-12.45,3.05-18.23c1.12-2.73,3.69-5.38,6.91-4.98
	c5.3,0.24,9.23,4.5,12.85,7.95c9.48,10.12,17.59,21.52,26.34,32.28c7.15,7.87,12.77,17.26,21.92,23.05
	c3.61,2.33,8.35,4.5,12.53,2.17c3.37-2.17,5.14-6.02,6.5-9.56c2.65-7.95,4.02-16.3,3.93-24.65c-0.08-10.12,0.16-20.32,0-30.51
	c-1.2-14.45-1.45-28.99,0.16-43.36c1.85-13.97,5.38-28.11,12.93-40.23c8.99-15.98,24.97-26.82,42.08-32.44
	c7.55-2.49,15.42-4.26,23.29-5.3C361.87,180.96,366.2,174.78,372.23,170.77z"/>
<path class="st1" d="M374.48,172.13c11.64-7.31,26.5-8.35,39.43-4.34c7.95,2.57,15.58,7.31,20.24,14.37
	c1.77,2.57,2.73,5.54,3.85,8.35c17.18,2.25,34.45,7.47,48.42,18.07c10.12,7.55,17.35,18.55,22,30.11
	c6.75,17.91,8.11,37.26,7.79,56.21c-0.88,13.65-0.88,27.3-0.48,40.95c0.72,10.6,1.45,21.36,4.58,31.56
	c1.45,4.02,3.37,8.27,7.23,10.44c3.61,1.77,7.63,0.24,10.68-1.85c4.5-3.29,8.43-7.15,11.88-11.48
	c9.64-12.29,17.91-25.46,26.82-38.22c4.5-5.86,8.43-12.61,15.34-15.98c6.18,7.63,6.26,17.99,4.82,27.22
	c-0.96,8.75-4.1,17.18-4.58,26.02c9.56,2.01,19.51,5.54,26.1,13.09c7.39,8.51,9.56,20.4,8.59,31.4c-0.24,4.82-1.37,9.64-2.17,14.37
	c0.56,1.61,2.01,2.81,2.89,4.26c4.58,6.26,6.18,14.78,3.21,22.08c-1.45,4.82-4.82,8.51-7.63,12.53c-0.4,2.25,0.64,4.5,0.72,6.75
	c1.2,8.99-1.85,17.83-6.1,25.54c9.32,10.12,17.1,22,20.48,35.49c0.56,2.01,0.72,4.26,2.01,6.02c4.9,6.83,8.91,14.7,9.72,23.13
	c0.56,5.86-1.37,12.37-6.34,15.9c-14.29,8.59-28.99,16.38-44.09,23.29c-5.38,2.41-10.68,5.14-16.3,6.99
	c-35.57,14.21-73.24,22.48-111.22,26.9c-18.71,2.33-37.58,3.13-56.37,3.93c-38.06,1.04-76.29-1.61-113.71-9.15
	c-48.18-9.15-94.68-26.1-138.76-47.62c-7.23-3.29-13.65-10.44-13.25-18.71c0-8.03,4.42-15.18,8.99-21.44
	c1.85-2.65,4.58-4.9,5.46-8.11c2.01-6.83,4.1-13.65,6.02-20.48c1.93-6.34,8.43-9.56,14.21-11.64c-3.05-4.58-5.62-9.56-6.75-15.02
	c-0.64-4.34-0.64-8.67,0-13.01c-6.99-2.89-14.21-6.34-18.71-12.69c-3.37-4.66-4.42-10.68-2.73-16.22
	c1.61-6.34,5.14-11.88,9.15-16.94c-5.46-9.88-10.04-20.96-8.67-32.44c1.45-9.88,8.35-18.23,16.7-23.29
	c4.9-3.13,10.28-5.38,15.58-7.71c1.53-0.4,0.88-2.09,0.88-3.21c-0.56-6.99-0.8-13.97-0.72-20.96c0-6.75,0.32-13.65,2.25-20.16
	c0.64-2.25,1.93-4.66,4.26-5.38c1.69-0.8,3.45,0.48,4.98,1.12c5.14,2.97,8.91,7.71,12.77,12.05c4.34,5.06,8.51,10.28,12.53,15.58
	c5.78,7.55,11.88,14.86,17.99,22.16c3.29,4.66,7.71,8.43,12.29,11.8c4.02,2.97,9.15,4.74,14.13,3.37c5.14-2.41,7.63-8.03,9.32-13.17
	c2.41-7.79,3.61-15.9,3.53-24.09c-0.08-6.99,0-13.97,0-20.88c0.24-10.44-0.8-20.88-1.37-31.32c0.56-4.5,0.64-9.07,0.8-13.65
	c1.04-13.57,3.69-27.22,9.4-39.67c4.1-8.11,9.07-15.9,15.82-22c14.7-13.25,34.21-19.67,53.64-22
	C363.47,182.73,367.97,176.07,374.48,172.13z"/>
<path class="st2" d="M389.01,181.77c5.54-3.45,12.53-3.93,18.47-1.2c6.42,2.89,11.96,7.55,15.9,13.41c1.12,1.61-0.88,3.21-1.53,4.66
	c-3.85-2.89-6.42-7.15-10.44-9.88c-2.57-1.77-5.22-3.77-8.35-4.34c-3.45-0.24-7.15-0.56-10.28,1.2c-5.86,2.81-9.64,8.27-13.73,13.01
	c-1.2-0.96-2.81-1.69-3.45-3.13C378.97,189.96,383.55,185.22,389.01,181.77z"/>
<path class="st2" d="M361.63,203.93c8.75-1.77,17.51-4.26,26.42-4.98c11.72,0,23.69-0.88,35.25,1.61
	c16.3,3.13,32.36,8.43,46.49,17.26c10.12,7.23,19.91,15.9,25.13,27.46c6.99,15.02,10.44,31.56,9.96,48.1
	c-0.08,2.81,0.8,5.62,0.8,8.43c0.08,15.66-0.08,31.32,0,46.98c1.28,16.22,6.26,31.96,13.41,46.49
	c6.34,13.65,13.89,26.66,19.67,40.55c3.05,8.35,6.5,16.7,8.11,25.54c-15.26,5.7-30.6,10.84-46.09,15.9
	c-27.54,8.91-55.89,15.66-84.8,18.15c-12.05,0-24.09,0.24-36.14-0.08c-17.35-1.45-34.45-4.66-51.39-8.75
	c-16.38-3.77-32.2-9.48-48.18-14.61c-6.75-2.09-13.17-5.22-20-7.23c-2.41-0.96-5.22-1.45-6.99-3.37c-0.24-3.45,0.08-6.99,1.04-10.36
	c3.93-14.45,12.29-27.06,18.15-40.71c1.85-4.58,4.98-8.59,7.23-13.01c6.83-13.17,11.16-27.62,14.7-42.08
	c1.28-4.74,0.56-9.64,0.72-14.45c0.24-5.62-1.12-11.16-0.8-16.86c0.32-20.48-1.37-41.28,2.89-61.43c1.77-9.07,5.14-17.75,9.88-25.7
	c3.29-5.46,8.11-9.72,12.69-14.05C331.67,212.6,346.77,207.62,361.63,203.93z"/>
<path class="st1" d="M405.71,220.87c6.67-0.24,12.77-2.97,18.71-5.7c2.01-0.96,2.73,2.89,0.8,3.45c-16.14,8.67-36.54,8.03-52.6-0.56
	l1.53-2.73C384.19,219.27,394.87,222.72,405.71,220.87z"/>
<path class="st1" d="M319.15,236.93c1.28-1.85,3.53-0.72,5.3-0.4c4.18,1.2,8.27,2.41,12.53,3.21c13.65,2.57,27.38,5.3,41.36,6.02
	c12.53,1.93,25.21,1.2,37.82,1.28c20.32-1.53,40.79-3.69,60.47-9.32c1.61-0.56,3.21,0.4,4.74,0.88c-3.53,3.45-8.67,3.61-13.17,4.9
	c-14.78,3.29-29.87,5.46-44.97,6.34c-7.63,0.96-15.42,0.56-23.13,0.56c-25.7,0.24-51.15-4.18-76.05-10.04
	C322.2,239.58,318.83,239.66,319.15,236.93z"/>
<path class="st1" d="M476.7,250.02c1.77-0.96,4.34,0.08,3.37,2.41c-4.34,1.69-8.91,2.25-13.41,3.29c-5.46,1.2-10.92,2.17-16.46,2.89
	c-8.83,1.28-17.59,2.73-26.5,3.13c-8.03,1.12-16.22,0.72-24.33,0.8c-9.48-0.08-19.03,0.4-28.43-0.8
	c-8.43-0.48-16.78-1.53-25.13-2.89c-8.75-1.37-17.83-2.01-26.26-4.98l-0.48-1.85c2.33-0.24,4.74-0.24,7.07,0.16
	c13.81,2.73,27.78,4.5,41.76,5.94c5.06,0.48,10.2,0,15.18,0.72c4.9,0.24,9.72,1.2,14.61,0.96c5.46,0.32,10.84-0.88,16.38-0.88
	c5.22-0.8,10.52-0.32,15.74-1.2C445.54,256.05,461.28,253.88,476.7,250.02z"/>
<path class="st1" d="M384.43,280.94c1.85-2.73,5.38-3.21,8.35-3.13c4.82,0.08,9.72-0.08,14.53,0c2.65,0,5.46,1.12,6.75,3.61
	c-1.69,3.69-4.5,7.47-3.05,11.8c2.49,2.49,5.86,3.53,8.75,5.38c4.42,2.89,8.67,5.94,13.09,8.91c-2.17,5.46-5.62,10.28-9.64,14.61
	c-2.17,2.41-5.22,3.61-8.19,4.66c-0.24-4.98,0.24-10.04-0.08-15.02c0.08-2.33-2.25-3.29-4.1-3.77c-0.16,28.75-0.16,57.5,0,86.32
	c1.69-0.16,3.53,0.08,5.14-0.56c3.45-2.25,5.14-6.26,8.27-8.75c1.77-1.45,4.18,1.04,3.45,2.97c-1.2,8.91-9.07,15.1-16.86,18.39
	c0.08,3.05-0.08,6.1,0.08,9.15l1.04,1.12c6.75,0.24,13.57,0.08,20.32,0c3.21,0.32,5.54-2.65,6.75-5.3c0.48-3.21,0.08-6.42,0.8-9.64
	c0.4-6.58-0.16-13.25,0.24-19.83c0.32-1.28,0.8-3.53,2.57-2.97c2.97,0.08,5.06,3.21,5.06,6.02c0.08,11.8-0.16,23.61-0.08,35.33
	c-0.24,1.85-0.24,4.18-1.93,5.38c-2.49,1.85-5.54,2.89-8.67,2.89c-16.38-0.08-32.76,0-49.06,0c-2.01,0.08-3.93-0.72-5.14-2.33
	c-0.16-4.18,5.78-5.78,5.7-9.96c0.08-3.61,0-7.23,0.08-10.84c-3.29-1.77-6.75-3.21-10.2-4.74c-4.26-2.01-8.27-4.42-11.96-7.15
	c-6.1-4.18-10.84-10.12-14.45-16.54c-4.42-9.32-6.99-19.43-7.55-29.79c0.88-8.67,2.73-17.51,7.47-25.05
	c3.21-6.1,8.27-10.92,13.49-15.26c3.77-2.97,7.71-5.86,12.37-7.47c3.29-1.37,6.99-2.09,9.96-4.18c1.45-0.88,0.88-2.73,0.88-4.1
	C388.29,287.28,384.19,284.79,384.43,280.94z"/>
<path class="st2" d="M383.47,309.53c1.61-1.45,3.77-1.53,5.78-1.85c0,27.62,0.24,55.25,0,82.87c-5.3-0.4-8.99-4.74-11.96-8.75
	c-5.78-9.48-8.67-20.4-8.35-31.48c0.08-4.74-0.24-9.48,0.4-14.13C371.5,326.31,375.28,316.03,383.47,309.53z"/>
<path class="st0" d="M585.19,325.03c0.88-0.96,2.25-1.2,3.45-1.69c1.12,2.97,1.69,6.02,1.61,9.23c0.32,15.98-1.77,32.76-10.28,46.74
	c-7.71,12.85-21.68,21.2-36.22,23.77c-4.82-0.64-9.88-1.45-13.97-4.34c-2.73-1.77-3.05-5.7-1.37-8.35
	c2.73-4.42,6.83-7.71,10.84-10.92c14.7-12.37,26.82-27.62,37.74-43.36C579.89,332.57,581.98,328.32,585.19,325.03z"/>
<path class="st0" d="M198.21,329.84c1.04-2.41,2.97-5.14,5.94-5.14c3.05,0.16,6.26,1.45,7.87,4.1
	c10.28,14.45,19.75,29.79,33.33,41.44c7.15,6.67,16.78,10.2,26.42,10.84c0.48,4.18,1.2,8.83-1.12,12.61
	c-1.85,2.41-4.66,3.85-7.31,5.14c-4.1,0.72-8.35,0.48-12.53,0.24c-4.66-1.2-8.91-3.85-13.81-4.42c-4.42-0.4-8.11-2.89-11.96-4.74
	c-6.1-3.05-11.56-7.15-16.14-12.21c-5.94-5.22-9.4-12.53-13.09-19.35C195.32,348.71,195.72,339.08,198.21,329.84z"/>
<path class="st0" d="M185.12,372.97c2.33-0.32,4.66-0.48,6.99-0.4c8.99,2.01,16.46,8.11,21.68,15.5
	c4.02,5.86,9.32,11.08,16.14,13.49c9.4,3.29,19.35,4.58,29.23,5.46c2.49,1.69,4.18,5.7,2.01,8.27c-2.01,2.81-4.26,5.54-5.7,8.75
	c-1.77,3.93-4.5,8.03-8.91,9.23c-1.77,0.48-3.37-0.72-4.82-1.53c-4.1-2.81-7.79-6.26-12.37-8.35c-3.61-1.61-6.67-4.74-10.84-4.74
	c-11.72-0.48-23.45,0.8-35.25,0.24c-3.85-0.4-7.15-2.89-10.04-5.38c-3.45-3.21-6.99-6.91-7.87-11.64c-1.2-5.54-1.2-11.8,1.77-16.86
	C170.83,378.35,177.82,374.01,185.12,372.97z"/>
<path class="st0" d="M593.14,376.9c3.93-1.28,7.79,1.04,11.08,2.97c6.26,3.37,11.88,8.43,14.61,15.18
	c2.73,6.75,2.41,14.13,0.56,20.96c-5.22,6.58-14.45,8.43-22.48,7.79c-4.58-0.16-9.07-2.17-13.65-1.28
	c-4.34,0.72-8.83,0.8-13.01,2.33c-5.22,3.13-9.8,7.31-14.13,11.56c-1.85,2.09-5.3,1.28-6.99-0.56c-1.69-1.85-2.65-4.34-4.1-6.34
	c-2.25-3.61-5.3-6.75-7.31-10.44c-1.2-1.93-0.88-5.06,1.37-6.1c6.02-3.21,13.25-2.81,19.51-5.46c8.67-3.45,15.1-10.6,20.8-17.67
	C583.34,385.01,587.03,379.39,593.14,376.9z"/>
<path class="st0" d="M187.77,425.24c2.01-0.16,3.93-0.48,5.94-0.48c7.71-0.08,15.42-1.12,23.13-0.32
	c6.26,1.77,12.37,4.26,17.99,7.55c5.38,3.37,10.84,7.63,12.45,14.05c2.09,5.7-1.37,11.24-3.29,16.46c-2.09,2.81-5.54,4.42-8.67,5.78
	c-5.3,0.48-10.76,0.64-15.74-1.45c-3.77-1.53-7.95-1.77-11.88-2.73c-3.29-0.8-6.75,0.16-9.96-0.96c-3.21-1.12-6.34-2.01-9.72-1.69
	c-2.25,0.16-4.66,0.56-6.83-0.48c-5.54-2.89-10.44-6.91-14.45-11.64c-3.29-4.1-4.34-9.64-3.53-14.7c1.53-5.38,6.91-8.67,12.21-9.64
	C179.5,423.96,183.6,425.56,187.77,425.24z"/>
<path class="st0" d="M609.92,426.77c4.34-0.64,9.23-0.16,12.53,3.13c2.33,2.25,2.97,5.7,2.73,8.83c0.16,4.34-2.81,7.87-5.38,11.08
	c-6.58,7.07-16.06,9.8-24.97,12.45c-6.1,2.25-12.69,2.97-18.47,5.86c-4.02,1.77-7.87,4.74-12.53,4.58
	c-2.73,0.16-6.26-0.64-7.07-3.61c0-2.41,0.8-4.9-0.08-7.31c-0.8-3.13-2.49-5.86-3.77-8.83c-1.28-3.05-0.48-6.5,2.01-8.67
	c3.93-3.93,7.63-8.43,13.09-10.28c8.03-3.45,17.02-1.61,25.46-3.53C599.16,429.74,604.38,427.57,609.92,426.77z"/>
<path class="st1" d="M524.96,454.07c2.09-1.04,4.58-0.88,6.5,0.48c-4.82,3.13-10.36,4.82-15.58,6.91c-9.48,3.93-19.35,6.5-29.15,9.4
	c-19.67,5.62-39.83,9.48-60.15,11.48c-13.33,1.45-26.74,0.8-40.15,0.96c-11.24,0.16-22.32-1.2-33.41-2.89
	c-19.51-2.81-38.71-7.31-57.34-13.57c-8.03-2.41-15.82-5.3-23.53-8.59c-1.53-0.96-5.54-1.69-4.02-4.1c2.41-0.16,4.9,0.4,7.07,1.45
	c18.95,8.19,38.95,13.57,59.1,18.07c11.56,2.33,23.29,3.93,34.93,5.3c4.02,0.4,8.11,0.16,12.13,0.8c8.11,0.48,16.22,0.24,24.33,0.32
	c11.4,0.16,22.73-1.61,34.05-2.81c16.7-2.33,33.25-5.86,49.47-10.68C501.43,463.23,513.4,459.13,524.96,454.07z"/>
<path class="st0" d="M603.98,469.09c4.74-0.64,9.56-1.04,14.29-1.69c0.16,2.97,0.56,5.94,0.24,8.91
	c-2.09,7.15-7.23,13.17-13.49,17.1c-9.8,6.1-21.04,8.91-31.88,12.37c-3.05,0.96-6.02,2.01-9.07,2.73c-0.4-3.37,2.17-5.54,4.26-7.63
	c5.86-6.26,9.15-14.37,14.05-21.2C587.52,473.02,595.95,470.13,603.98,469.09z"/>
<path class="st0" d="M182.39,476.31c-0.4-3.61,2.41-7.95,6.42-7.31c5.06,0.16,10.12-0.08,15.18,0.32c5.14,1.12,9.88,3.53,13.81,7.15
	c6.1,6.1,8.91,14.45,14.29,21.12c1.77,2.25,4.18,3.93,5.78,6.26c1.04,1.45,0.16,3.13-0.4,4.58c-5.46-1.37-10.68-3.61-16.22-4.58
	c-6.58-2.81-13.73-4.1-20.08-7.55c-3.85-2.33-8.19-3.77-11.64-6.83C185.52,486.11,182.95,481.45,182.39,476.31z"/>
<path class="st0" d="M223.11,473.02c4.18-1.85,8.83-1.2,13.25-1.2c7.87,0.08,15.5,2.89,21.68,7.79c5.06,4.1,9.07,9.23,12.85,14.45
	c3.85,4.98,8.43,10.2,8.27,16.86c-0.24,3.53-4.02,5.22-6.91,6.26c-8.91,0.56-17.43-3.13-24.97-7.55c-1.93-1.28-3.93-2.41-5.38-4.26
	c-3.21-4.26-5.86-8.91-8.03-13.81c-0.88-2.41-3.13-3.69-4.82-5.46c-2.25-2.25-3.29-5.3-4.74-8.11
	C223.51,476.39,223.11,474.71,223.11,473.02z"/>
<path class="st0" d="M560.94,477.44c3.37-0.56,6.91-0.4,10.2,0.48c2.25,0.24,2.01,3.05,1.37,4.58c-1.2,2.73-3.05,5.14-4.18,7.95
	c-3.29,7.31-7.79,13.97-13.33,19.75c-1.61,1.77-3.77,2.73-5.86,3.69c-5.14,2.41-10.68,3.93-16.06,5.62
	c-3.37,1.12-7.15,0.8-10.52-0.24c-2.81-0.96-4.74-3.61-4.74-6.67c0.24-12.05,7.95-22.65,19.27-26.74
	C545.28,483.46,552.67,479.04,560.94,477.44z"/>
<path class="st0" d="M281.97,489.4c25.7,5.54,51.55,10.76,77.81,12.05c4.42,0.88,8.83,0.4,13.25,0.8c2.65,5.54,5.86,10.76,9.72,15.5
	c4.02,5.06,9.15,9.07,13.73,13.57c0.72,2.73,0.24,5.62,0.16,8.35c-8.27,0.48-16.54-0.64-24.81-0.72
	c-18.23-1.37-36.54-3.21-54.44-7.31c-12.21-2.73-24.25-6.34-35.98-10.76c0.4-3.45,1.77-6.91,0.88-10.36
	c-0.8-3.93-1.77-7.79-2.09-11.72C280.76,495.67,281.24,492.54,281.97,489.4z"/>
<path class="st0" d="M508.82,490.21c2.57-0.64,5.14-1.12,7.71-1.53c0.88,4.34,2.25,8.75,1.2,13.17c-0.64,3.53-1.61,7.07-1.77,10.68
	c0.08,2.73,0.72,5.3,1.12,8.03c-14.21,5.78-29.07,9.48-44.01,12.77c-13.17,2.89-26.66,4.1-40.07,5.62
	c-10.36,0.64-20.64,1.77-31.08,1.53c-0.16-3.53-1.77-8.35,1.85-10.6c5.78-4.34,10.76-9.64,14.86-15.66
	c2.01-4.1,4.58-7.87,6.26-12.13c7.31,0.08,14.61-0.48,21.84-1.69c13.97-0.8,27.7-3.53,41.44-5.94
	C495.09,493.02,502.07,492.05,508.82,490.21z"/>
<path class="st1" d="M284.7,493.42c11.16,2.89,22.65,4.42,33.89,7.07c-11.08,2.41-22,5.22-33.08,7.39
	C284.14,503.14,283.25,498.24,284.7,493.42z"/>
<path class="st1" d="M479.51,500.24c11.48-2.41,23.05-4.42,34.45-7.07c1.69,4.82,0.56,9.96-0.96,14.61
	C501.83,505.38,490.75,502.73,479.51,500.24z"/>
<path class="st1" d="M444.74,505.06c8.43-1.45,16.94-1.85,25.3-3.53c14.21,2.65,28.27,6.34,42.48,8.91c0.4,2.65,0.64,5.38,0.8,8.03
	c-5.06,1.77-10.04,3.85-15.26,5.14c-2.81-0.64-5.62-1.61-8.19-2.89c-9.32-3.85-18.95-6.83-28.43-10.28
	C455.82,508.84,450.28,507.07,444.74,505.06z"/>
<path class="st1" d="M317.62,504.02c3.93-0.72,7.71-2.73,11.72-2.09c8.43,0.88,16.78,2.17,25.21,2.81
	c-17.99,6.42-36.06,12.69-54.2,18.87c-5.22-1.12-10.2-3.13-15.18-4.98c0.64-2.49,0.88-5.14,0.88-7.71
	C296.66,508.6,307.1,506.03,317.62,504.02z"/>
<path class="st0" d="M184.4,508.76c4.82-4.02,11.88-6.5,17.91-3.85c23.37,8.59,46.98,16.7,71.15,22.56
	c33.33,8.43,67.37,14.29,101.74,15.58c13.41,0.88,26.82,0.72,40.23,0.72c22.73-0.72,45.37-3.05,67.86-6.83
	c10.44-2.17,20.96-3.85,31.4-6.26c27.54-6.1,54.61-14.21,81.02-24.17c1.93-0.48,3.93-0.24,5.86-0.08c4.26,0.4,8.75,0.4,12.61,2.41
	c2.17,1.12,3.69,3.13,4.18,5.46c1.12,4.5,1.2,9.32,3.21,13.57c5.3,11.4,13.09,21.6,17.1,33.57c0.8,2.09,0.64,4.42,0.24,6.58
	c-6.91,1.37-12.45,5.86-18.71,8.75c-8.11,4.26-16.78,7.23-25.05,11.08c-7.71,3.93-15.98,6.67-24.01,9.8
	c-5.3,2.17-10.76,3.93-16.3,5.38c-35.09,11.08-71.31,18.71-108.01,21.76c-67.29,6.26-135.55-2.17-199.87-22.48
	c-26.18-8.75-52.2-18.31-76.93-30.6c-2.49-1.37-5.38-2.09-7.55-3.77c-1.85-5.3-2.49-11.32-0.64-16.7
	c1.93-5.62,7.47-8.83,10.04-13.97c1.45-2.73,0.72-5.94,1.69-8.75C175.57,521.2,178.62,513.9,184.4,508.76z"/>
<path class="st1" d="M325.57,518.31c11.72-4.42,23.61-8.35,35.41-12.77c3.29-0.56,6.67-0.16,9.96,0c0.96,1.61,1.85,3.21,2.73,4.9
	c-7.39,5.3-15.5,9.4-23.13,14.45c-4.26,2.09-7.79,5.78-12.37,6.99c-10.76-1.37-21.44-3.93-31.96-6.58
	C312.56,522.65,319.15,520.64,325.57,518.31z"/>
<path class="st2" d="M404.91,505.46c3.37-0.48,6.83-0.64,10.28-0.64c0.64,8.03-7.23,15.26-15.1,14.7c-5.3,0.4-10.52-2.01-13.65-6.34
	c-1.69-2.17-1.37-5.06-1.69-7.63C391.5,505.3,398.24,505.7,404.91,505.46z"/>
<path class="st1" d="M426.99,505.79c4.34-0.48,8.91-1.2,13.01,0.64c2.81,0.96,5.62,1.77,8.35,2.89
	c10.28,4.26,20.72,7.95,31.16,11.48c4.42,1.53,9.15,2.33,13.49,4.1c-10.92,3.21-22,5.7-33.16,7.39
	c-9.32-5.22-17.91-11.64-27.22-16.86c-2.65-1.53-5.3-3.13-7.87-4.82C425.39,509,426.19,507.39,426.99,505.79z"/>
<path class="st1" d="M580.29,517.59c4.42-1.85,8.91-3.69,13.41-5.46c1.85-0.16,2.97,1.53,4.02,2.73c-2.01,3.69-6.02,5.38-9.88,6.34
	c0.88,0.96,1.69,2.41,3.29,2.17c3.53-1.85,7.31-3.29,11.08-4.42c3.13,1.12,2.57,6.42-0.56,7.15c-3.13,0.8-6.18,1.93-9.15,3.29
	c0,1.37,0,2.65,0.08,4.02c4.34,0.56,8.11-1.85,12.29-2.25c2.49-0.32,4.82,1.2,5.7,3.53c1.93,5.14,4.02,10.68,3.21,16.22
	c-0.8,4.82-6.02,6.26-9.88,7.87c0.08,0.72,0.24,2.17,0.32,2.89c4.18,1.28,7.63-2.81,11.64-1.2c0,0.96-0.08,1.93-0.08,2.97
	c-2.97,1.37-6.26,2.33-8.75,4.58c-0.08,1.12-0.16,2.25-0.16,3.37c3.85-1.93,8.11-3.05,12.45-3.13c0.24,1.12,0.4,2.33,0.56,3.45
	c-6.67,3.13-13.81,5.38-20.48,8.59c-3.77,0.72-6.99,3.13-10.76,3.53c-2.81-0.16-2.41-3.93-0.4-4.98c3.05-1.28,6.26-2.41,8.91-4.42
	c-0.32-0.96-0.72-1.93-1.12-2.89c-3.93,1.93-8.11,3.61-12.61,2.41c-0.16-0.88-0.24-1.77-0.32-2.65c3.45-2.65,7.95-3.61,11.08-6.67
	c-4.1-2.01-8.19,0.96-12.05,2.01c-2.33-0.24-3.45-2.41-4.02-4.42c-0.56-2.57-3.37-3.93-3.61-6.67c-0.48-3.61-2.97-6.42-3.85-9.96
	c-0.8-1.45,0.24-3.05,1.28-3.93c3.05-2.17,7.07-1.77,10.2-3.45c1.61-0.96,0.4-2.81,0.32-4.18c-4.74,1.93-9.4,4.74-14.61,4.82
	c-3.05-0.96-5.94-2.57-9.07-3.21c-1.69,3.53-4.18,6.83-4.9,10.76c4.58-0.48,8.91-3.45,13.57-2.49c2.97,2.49-0.88,5.78-2.09,8.11
	c2.01,2.09,5.7,1.93,6.34,5.38c-1.12,1.61-2.33,3.21-3.45,4.74c0.64,1.37,1.28,2.73,2.01,4.1c1.53-0.08,3.05-0.24,4.66-0.4
	c-0.16,1.69,0.48,3.69-0.64,5.22c-1.69,2.17-1.12,5.06-0.32,7.47c1.53,2.49,4.74,0.32,7.07,0.32c0.64,2.01,1.85,4.98-0.64,6.18
	c-4.34,1.85-8.43,4.66-13.25,5.06c-2.57,0.16-4.58,2.49-7.23,2.09c-1.85-0.56-3.93-2.25-3.61-4.34c0.88-4.98-2.81-9.07-3.37-13.81
	c0-1.77-0.32-4.42,1.93-4.9c1.61-0.88,3.45,0.16,4.66,1.28c1.28,4.66,3.69,8.83,4.1,13.73c1.37-0.4,2.73-0.8,4.1-1.2
	c-2.09-6.34-5.14-12.37-6.75-18.87c-3.21,0.56-6.58,0.96-9.64-0.4c0-0.96,0-1.93,0.08-2.97c2.25-1.04,4.5-2.09,6.67-3.21
	c-0.08-1.2-0.24-2.41-0.32-3.61c-4.18-0.56-8.43,0.24-12.53-0.56c-1.69-0.08-2.57-2.25-1.77-3.61c2.81-6.18,6.5-11.97,9.15-18.23
	c0.88-2.17,2.89-4.42,5.46-3.77c2.57,0.72,4.66,2.49,6.91,3.77c4.82,1.04,9.48-0.8,13.81-2.65c1.37-0.56,1.37-2.09,1.53-3.37
	c-4.34-1.37-8.35,1.53-12.61,1.04c0.08-1.37-0.08-2.81,0.56-4.02C572.1,520.64,575.95,518.47,580.29,517.59z"/>
<path class="st1" d="M367.09,518.07c2.57-1.77,5.3-3.29,8.03-4.82c1.61,2.49,3.53,4.82,5.22,7.23c-4.74,3.45-9.72,6.5-14.37,10.2
	c-1.77,1.28-3.37,2.73-5.38,3.69c-5.62-0.16-11.24-0.72-16.7-1.85C351.27,526.98,359.46,522.97,367.09,518.07z"/>
<path class="st1" d="M418.48,520.72c1.37-2.73,2.89-5.3,4.66-7.71c7.23,4.5,14.29,9.15,21.68,13.41c3.61,2.01,7.07,4.18,10.36,6.58
	c-5.78,0.72-11.56,1.37-17.35,2.01C431.81,529.72,424.58,525.94,418.48,520.72z"/>
<path class="st1" d="M208.33,521.2c0.64-2.17,2.89-3.45,5.14-2.97c3.69,2.81,0.88,7.63,0.88,11.4c2.81,0.56,5.54-0.24,8.27-0.4
	c2.97,0.48,5.86,1.45,8.99,1.2c1.2-1.69,2.25-3.45,3.53-5.06c2.01,0.48,3.93,1.04,5.86,1.69c0.08,2.81,0.08,5.62,0,8.43
	c3.29,0.08,6.5,1.28,8.67,3.93c0.64,1.69,0.96,4.58-1.45,4.98c-1.69-0.16-3.37-0.4-5.06-0.8c0.32,2.89,0.96,5.7,1.53,8.51
	c0.32,1.28-0.24,2.65-1.45,3.29c-2.41,0.48-4.26-1.53-5.46-3.37c-2.09-3.53-2.33-7.79-4.02-11.56c-5.06,0.08-9.56,2.73-14.37,3.93
	c-1.85,0.48-4.66-0.8-4.1-3.05c0.4-3.13,3.85-3.61,6.1-4.98c-0.4-0.96-0.96-1.85-1.61-2.65c-1.77,1.45-3.37,3.13-5.46,4.1
	c-1.45,0.24-2.89-0.4-4.34-0.64c-2.17,3.93-4.9,8.19-4.58,12.85c1.12,3.29,3.69,6.42,2.41,10.12c-2.17,2.81-5.62,0.24-8.03-0.8
	c-2.09,4.42-2.89,9.56-5.86,13.49c-1.85,0.56-4.58,0.48-5.46-1.53c-1.28-2.33-0.24-5.06,0.88-7.23c2.33-4.42,4.5-8.91,6.26-13.57
	c0.72-3.05,0.08-6.18,0.16-9.32c1.77-0.72,3.53-1.45,5.3-2.09c0.32-1.93,2.41-4.42,0.4-5.94c-1.85-0.88-4.18-0.16-5.06,1.77
	c-0.16,0.24-0.24,0.56-0.32,0.8c-0.8,2.73-2.41,5.06-3.77,7.47c-0.08,4.42-2.97,7.79-4.18,11.88c-0.56,2.97-3.53,4.42-5.38,6.58
	c-2.09,2.49-5.62,1.28-8.11,0.24c0.88-3.61,5.78-3.93,6.26-7.71c0.88-2.89,3.37-4.82,4.42-7.71c2.97-4.82,4.02-10.36,6.26-15.5
	c1.04-2.57,0.08-6.02,2.41-7.95c3.77-1.2,7.31,0.8,10.92,1.69C207.21,525.3,207.45,522.65,208.33,521.2z"/>
<path class="st1" d="M365.4,534.77c5.78-3.85,11.16-8.27,16.94-12.05c3.45,3.77,7.31,7.31,11.32,10.52c0,0.72-0.08,2.25-0.08,3.05
	C384.19,535.66,374.8,536.06,365.4,534.77z"/>
<path class="st1" d="M416.47,523.05c5.54,4.26,11.4,8.03,16.94,12.29c-9.4,0.8-18.79,1.45-28.19,1.53
	c-0.08-0.72-0.24-2.09-0.32-2.81C408.92,530.6,412.78,526.9,416.47,523.05z"/>
<path class="st0" d="M594.66,543.69c0.24-4.5,5.78-7.87,9.8-5.94c0.96,1.2,1.85,3.13,0.48,4.42
	C602.05,544.73,598.04,545.05,594.66,543.69z"/>
<path class="st1" d="M483.28,542.8c7.39-1.45,14.78-2.81,22.16-4.1c2.09-0.56,3.61,1.45,3.93,3.29c-5.22,3.29-11.64,2.81-17.43,4.5
	c-0.08,0.64-0.16,1.85-0.24,2.49c6.75,1.53,13.73,0.32,20.32-1.45c2.81-0.8,5.78-0.32,8.67,0.16c0.56,4.98,3.29,9.56,2.89,14.53
	c-0.08,3.21-4.26,2.97-6.26,1.85c-2.41-3.05-2.01-7.63-4.82-10.28c-6.58,0.64-14.13-1.12-19.75,3.21c3.37,0.72,6.83,0.4,10.2,0.24
	c0.4,0.56,1.12,1.61,1.53,2.09c-3.13,1.77-6.75,2.01-9.96,3.37l-1.12,1.37c3.69,0.08,7.39-0.32,11,0.4
	c-0.08,1.12-0.16,2.25-0.24,3.37c-3.77,0.48-7.55,0.72-11.32,1.2c-4.58,0.8-9.23,0.32-13.73,1.61c-3.21,0.96-6.67,1.53-10.04,0.56
	c-0.08-1.04-0.24-2.09-0.32-3.05c4.82-1.28,10.44-0.24,14.53-3.77c-4.74-0.88-9.56,0.4-14.29,0.24c0.08-1.2,0.16-2.41,0.24-3.69
	c3.53-0.56,7.15-0.48,10.68-1.37c0.16-0.96,0.24-1.85,0.24-2.81c-3.05,0.32-5.78,1.61-8.83,1.93c-3.05,0.24-6.02,0.72-8.99,1.37
	c0.48,4.02,1.2,7.95,1.69,11.97c0.56,2.33-1.85,4.1-3.85,4.42c-1.93-0.32-3.69-1.28-4.9-2.73c-0.72-5.86-0.48-11.88-0.96-17.75
	c8.51-1.61,17.26-2.57,25.78-4.26c0-0.64-0.08-1.77-0.08-2.41c-5.54-1.77-11.16,0.64-16.7-0.24l-0.88-2.25
	c1.12-0.72,2.09-1.93,3.53-1.93C471.8,544.17,477.58,543.53,483.28,542.8z"/>
<path class="st1" d="M285.9,543.61c0.48-3.21,4.98-3.53,7.23-2.01c2.65,1.53,1.28,4.82,1.28,7.23c-0.08,4.9-2.33,9.88-0.48,14.7
	c2.09-1.69,4.74-3.69,4.34-6.75c0.24-4.66-0.72-10.28,3.13-13.73c1.53-2.25,4.5-2.89,6.83-1.37c0.24,0.16,0.4,0.32,0.56,0.48
	c3.93,3.53,9.48,1.93,14.13,2.81c3.13,0.64,6.42,0.48,9.4,1.69c3.45,2.81,2.49,7.79,1.77,11.56c-0.56,4.1-2.97,7.71-2.97,11.88
	c2.17,0.24,4.42,0.24,6.67,0.4c1.85,4.5,1.04,9.64-0.48,14.13c-0.48,1.85-2.73,2.01-4.26,2.41c-0.64-3.77,0.88-7.55,0.56-11.32
	c-3.05-0.48-6.02-1.2-8.99-2.17c-4.9-1.85-10.28-1.61-15.34-3.13c-7.71-2.41-15.9-2.33-23.61-4.58c-2.33-0.8-4.82-0.48-7.23-0.32
	c-1.69,3.13-2.25,6.67-3.21,10.12c-0.8,2.41-3.53,2.57-5.62,3.05c-0.32-2.25-0.64-4.42-0.72-6.67c1.04-2.57,2.25-5.06,3.37-7.63
	c0.56-2.17,0.96-4.34,2.49-6.1c1.93,0.4,3.93,0.8,5.86,1.12C282.37,554.13,284.3,548.91,285.9,543.61z"/>
<path class="st0" d="M578.04,550.19c0.16-5.06,6.02-6.99,10.28-6.5c-0.24,1.45,0.32,3.29-0.96,4.34
	C584.79,550.11,581.33,550.91,578.04,550.19z"/>
<path class="st0" d="M304.29,544.65c1.04,0.32,2.09,0.72,3.13,1.12c0.24,1.28,0.4,2.65,0.48,4.02c1.28,0.64,2.97,0.88,3.77,2.25
	c0.96,1.45,0.72,3.29,0.72,4.98c-2.09,0-4.18-0.16-6.26-0.24C305.42,552.76,304.29,548.83,304.29,544.65z"/>
<path class="st0" d="M599.96,548.67c1.45-2.25,4.42-1.61,6.67-1.77c-0.16,1.77,0.08,3.69-0.64,5.38c-1.45,1.28-3.45,2.17-5.46,1.61
	C599.32,552.44,598.52,550.19,599.96,548.67z"/>
<path class="st0" d="M313.61,549.63l1.45-2.33c4.1,0.08,8.35,0.48,12.21,2.01c0.64,1.12,0.48,2.49,0.48,3.77
	c-2.81,0.08-5.62-0.16-8.43,0.24c2.49,1.28,5.3,1.85,7.47,3.69c1.53,0.96,0.56,2.89,0.48,4.34c-3.21,0.24-6.42-0.56-9.56-0.96
	c0.08,0.64,0.16,1.85,0.24,2.49c1.85,0.16,3.61,0.48,5.46,0.8c1.69,0.4,2.25,2.25,3.13,3.61c-4.02,1.93-9.88,3.13-12.93-0.96
	c-2.01-1.53-2.97-4.18-2.33-6.67c1.45-0.64,2.89-1.2,4.42-1.77C315.21,555.01,314.57,552.28,313.61,549.63z"/>
<path class="st1" d="M215,550.67c1.04-1.61,3.93-2.01,4.9-0.08c1.45,2.25,1.93,6.1,5.14,6.5c2.09-0.88,3.85-2.41,5.7-3.53
	c2.01,0.56,4.66,1.77,3.61,4.26c-2.25,2.97-5.7,4.5-8.59,6.67c1.61,5.38,4.42,10.44,8.11,14.7c2.01,2.49,5.3,4.1,6.1,7.31
	c0.32,1.85-1.69,2.65-3.13,2.89c-3.69,0-7.63-1.04-10.12-3.85c-3.77-4.9-4.02-11.64-8.11-16.3c-3.77,1.04-6.99,3.45-10.44,5.22
	c-2.97,1.45-5.86,4.02-9.4,2.97c-2.25-1.12-1.69-4.58,0.16-5.78c3.05-2.49,7.23-2.57,10.28-4.9c2.41-1.93,5.78-3.13,7.23-6.02
	C216.76,557.18,214.19,554.13,215,550.67z"/>
<path class="st1" d="M392.22,551.4c1.53-1.69,4.02-1.61,5.94-0.88c1.85,0.64,4.34,1.04,4.98,3.21c0.64,2.81,0.24,5.7,0.32,8.51
	c4.26,0.24,8.51,0.16,12.77,0.16c3.53,0.32,6.99-3.05,10.52-0.96c3.05,1.53,2.17,5.38,2.01,8.11c-0.72,5.22-0.4,10.6-1.69,15.74
	c-2.01,5.7-6.83,9.72-11,13.89c-4.42-1.04-8.91-0.72-13.41-1.04c-0.32,6.42-0.48,12.85-1.2,19.19c-1.2,1.61-2.89,3.45-5.22,3.29
	c-1.93-0.32-3.37-1.85-4.26-3.53c-2.73-6.1-2.25-12.77-3.05-19.27c-7.71-0.8-15.5-1.2-23.29-2.01c0.4-10.36,0.48-20.72,0.24-31.08
	c-0.24-1.04,0.32-2.17,1.28-2.65c1.85-0.16,3.61,0.64,5.46,0.32c6.1-2.01,12.45,0.56,18.71,0.4
	C393.19,559.11,391.98,555.17,392.22,551.4z"/>
<path class="st0" d="M582.54,556.13c2.17-1.85,4.9-2.89,7.71-2.89c0.72,1.2,1.37,2.41,1.85,3.69c-3.05,1.69-6.26,3.93-9.96,2.65
	C582.22,558.46,582.3,557.26,582.54,556.13z"/>
<path class="st0" d="M302.44,558.38c1.53-0.56,2.17,2.01,0.56,2.25C301.48,561.19,300.84,558.7,302.44,558.38z"/>
<path class="st0" d="M306.62,562.08c1.2,0.72,2.73,1.2,3.29,2.65c-0.4,0.96-1.2,1.69-2.25,2.01c-1.45-0.4-2.25-1.77-3.37-2.65
	L306.62,562.08z"/>
<path class="st0" d="M375.68,567.78c4.9,0.4,9.96-0.32,14.78,1.04c3.53,1.85,1.93,6.42,2.25,9.56c0.56,4.26-0.96,8.19-2.25,12.13
	c-4.74-0.32-9.48-0.08-14.13-0.48c-2.09-0.16-2.41-2.73-2.41-4.34C374.39,579.74,375.2,573.72,375.68,567.78z"/>
<path class="st0" d="M402.9,569.22c3.21-0.8,6.67-0.16,10.04-0.32c3.05,0.16,6.18-0.4,9.23,0.24c1.45,1.37,0.64,3.37,0.64,5.14
	c0.08,2.09,0.8,4.18,0.4,6.26c-1.04,3.21-3.13,5.94-4.74,8.91c-0.64-0.56-1.37-1.2-2.01-1.77l1.69,2.01
	c-1.45,0.72-2.65,2.09-4.42,2.09c-3.69,0.08-7.39-0.16-11.08-0.64c-1.93-1.2-1.45-3.69-1.37-5.54
	C401.86,580.23,401.14,574.52,402.9,569.22z"/>
<path class="st1" d="M287.27,570.35c1.85-0.24,3.77-0.64,5.7-0.32c4.5,0.88,9.07,1.12,13.41,2.57c4.58-0.08,9.72,0.32,13.01,3.85
	c1.45,1.53,2.73,4.5,0.64,6.02c-2.81,1.04-6.26,0.96-8.35,3.37c-0.32,1.2-0.96,3.45,0.88,3.77c3.85,1.12,7.95,1.28,11.64,2.81
	c0.8,0.96,1.04,2.25,1.53,3.45c-1.12,0.56-2.33,1.12-3.53,1.45c-4.66,0.08-9.32-0.8-13.65-2.49c-1.37,3.37-1.69,7.07-2.65,10.52
	c-2.25,4.18-7.71,2.41-11.48,2.33c-4.58-1.61-9.48-2.81-13.49-5.62c-2.09-1.69-5.06-4.34-3.13-7.23c1.93-1.69,4.42-0.16,6.34,0.88
	c2.49,1.53,4.98,3.21,7.79,3.93c0.56-2.65,1.37-5.22,1.45-7.95c-6.02-1.28-12.05-2.57-17.99-4.18c-0.72-0.56-1.45-1.12-2.17-1.77
	c1.04-1.28,2.01-2.73,3.37-3.61c3.61-0.64,6.75,1.77,10.2,1.93c2.81,0.48,5.62,1.69,8.59,1.2c1.53-0.56,2.65-1.69,3.93-2.41
	c1.93-0.16,3.85,0.64,5.78,0.24c2.25-1.04,4.66-1.93,6.26-3.85c-3.37-1.28-7.07-1.69-10.52-2.97c-3.85-1.37-8.03-1.04-11.88-2.41
	C287.51,573.4,287.83,571.55,287.27,570.35z"/>
<path class="st1" d="M497.74,572.52c3.29-0.96,6.67-1.69,10.04-2.41c1.69-0.4,4.02,0.24,4.5,2.17c0.96,3.21,1.69,6.42,2.65,9.64
	c-3.77,2.41-8.43,2.25-12.77,2.97c-5.22,0.96-10.68,0.72-15.58,2.89c-2.89,1.28-6.02,0.8-9.07,1.37c-3.77,1.45-7.95,1.2-11.88,1.12
	c-0.24-2.97-1.2-5.78-1.69-8.75c-0.08-3.53,3.45-5.86,6.75-5.54C479.59,574.2,488.74,574.12,497.74,572.52z"/>
<path class="st0" d="M501.43,575.09c2.65-0.72,5.46-0.24,8.03,0.48c0,1.93,0.32,4.58-1.93,5.38c-2.09,0.24-4.18,0.16-6.18-0.08
	C499.91,579.18,499.99,576.69,501.43,575.09z"/>
<path class="st0" d="M485.29,578.78c0.88-1.12,2.57-0.96,3.85-1.2c2.65-0.48,4.74,3.13,2.97,5.22c-1.61,2.25-4.58,1.2-6.91,1.04
	C485.13,582.07,484.89,580.39,485.29,578.78z"/>
<path class="st0" d="M470.28,579.98c2.81-0.56,6.1-0.88,8.43,1.04c0.08,1.28-0.16,2.57-0.64,3.77c-2.41,1.53-5.3,1.45-7.95,0.64
	C470.11,583.6,470.2,581.83,470.28,579.98z"/>
<path class="st1" d="M498.54,588.98c6.91-0.64,13.65-2.57,20.56-2.57c0.08,0.96,0.48,1.85,0.32,2.81c-1.77,1.93-4.42,2.41-6.75,3.29
	c2.41,1.61,4.5,3.69,6.99,5.22c2.17,1.37,5.38-0.24,7.07,1.85c0.96,2.33-1.53,3.93-3.29,4.9c-3.53,1.04-7.39,0.8-10.6,2.89
	c-4.58,0.88-9.4,1.12-13.97,2.25c-3.05,0.96-6.5,0.48-9.15,2.65c-8.91,0.16-17.75,2.81-26.82,2.81c-1.77-0.08-3.37-2.41-1.69-3.77
	c3.53-3.61,6.18-8.03,9.72-11.64c-2.41-0.72-6.02-1.2-6.18-4.42c1.28-2.49,4.58-1.2,6.83-1.69
	C480.63,592.51,489.39,589.7,498.54,588.98z"/>
<path class="st0" d="M497.1,594.52c1.12,0,2.25,0.08,3.29,0.16c-0.4,3.21-1.28,6.42-2.57,9.4
	C496.77,601.02,496.53,597.73,497.1,594.52z"/>
<path class="st0" d="M484.33,597.25c1.2-0.08,2.41-0.16,3.61-0.16c0.96,2.33,1.53,4.82,1.77,7.31l-2.89,0.32
	C485.45,602.39,483.85,600.06,484.33,597.25z"/>
<path class="st0" d="M504.97,603.19c1.69-1.53,3.21-4.9,5.86-4.02C511.79,602.71,507.37,602.87,504.97,603.19z"/>
<path class="st0" d="M471.96,608.49c1.2-1.45,2.41-2.81,3.53-4.18c1.53,0.24,2.97,0.4,4.5,0.72l0.64,2.25
	C477.98,608.81,474.85,609.21,471.96,608.49z"/>
</svg>
