<?xml version="1.0" encoding="utf-8"?>
<!-- Generator: Adobe Illustrator 24.0.0, SVG Export Plug-In . SVG Version: 6.00 Build 0)  -->
<svg version="1.1" id="Layer_1" xmlns="http://www.w3.org/2000/svg" xmlns:xlink="http://www.w3.org/1999/xlink" x="0px" y="0px"
	 viewBox="0 0 24 24" style="enable-background:new 0 0 24 24;" xml:space="preserve">
<style type="text/css">
	.st0{fill:none;stroke:#FFFFFF;stroke-width:2;stroke-linecap:round;stroke-linejoin:round;}
</style>
<path class="st0" d="M6,4h12c1.1,0,2,0.9,2,2v12c0,1.1-0.9,2-2,2H6c-1.1,0-2-0.9-2-2V6C4,4.9,4.9,4,6,4z"/>
<rect x="9" y="9" class="st0" width="6" height="6"/>
<line class="st0" x1="9" y1="1" x2="9" y2="4"/>
<line class="st0" x1="15" y1="1" x2="15" y2="4"/>
<line class="st0" x1="9" y1="20" x2="9" y2="23"/>
<line class="st0" x1="15" y1="20" x2="15" y2="23"/>
<line class="st0" x1="20" y1="9" x2="23" y2="9"/>
<line class="st0" x1="20" y1="14" x2="23" y2="14"/>
<line class="st0" x1="1" y1="9" x2="4" y2="9"/>
<line class="st0" x1="1" y1="14" x2="4" y2="14"/>
</svg>
