<?xml version="1.0" encoding="utf-8"?>
<!-- Generator: Adobe Illustrator 23.0.1, SVG Export Plug-In . SVG Version: 6.00 Build 0)  -->
<svg version="1.1" id="Layer_1" xmlns="http://www.w3.org/2000/svg" xmlns:xlink="http://www.w3.org/1999/xlink" x="0px" y="0px"
	 viewBox="0 0 1250 1250" style="enable-background:new 0 0 1250 1250;" xml:space="preserve">
<style type="text/css">
	.st0{fill:none;}
</style>
<path d="M903.22,856.09l-28.25,2.5c-19.71,1.74-39.38-3.88-55.19-15.78l-92.99-70l41.87-45.02L903.22,856.09z"/>
<path d="M711.49,528.39c0,23.02-18.66,41.68-41.68,41.68c-23.02,0-41.68-18.66-41.68-41.68c0-23.02,18.66-41.68,41.68-41.68
	C692.83,486.71,711.49,505.37,711.49,528.39"/>
<path d="M617.26,457.35L617.26,457.35c-4.95,1.79-10.5,0.33-13.93-3.67L500.31,333.92c-3.4-3.95-2.3-10.02,2.27-12.53l8.54-4.69
	c15.54-8.54,35.07-2.92,43.69,12.58l65.99,118.65C622.78,451.48,621.09,455.97,617.26,457.35"/>
<path d="M670.97,453.97L670.97,453.97c-2.76-0.19-4.97-2.38-5.19-5.14l-9.47-116.82c-0.58-7.21,5.04-13.41,12.27-13.53
	c10.04-0.16,18.06,8.32,17.34,18.34l-8.08,111.2C677.58,451.55,674.51,454.21,670.97,453.97"/>
<path d="M736.5,477.45L736.5,477.45c3.27,1.28,6.8,0.59,8.88-1.74l62.22-69.8c2.05-2.3,1.12-6.07-1.93-7.79l-5.69-3.2
	c-10.37-5.83-22.79-3.09-27.8,6.12l-38.3,70.48C732.72,473.63,733.97,476.45,736.5,477.45"/>
<polygon points="726.53,700.49 731.15,695.47 466.75,454.93 488.77,390.85 419.75,440.68 397.28,456.82 628.66,700.49 "/>
<path d="M731.15,695.47l-102.47,4.85L391.61,955.25c48.38,7.41,97.37-9.02,131.49-44.11l155-159.38l19.94-20.5l0.43-0.44l-0.01-0.01
	L731.15,695.47z"/>
<rect class="st0" width="1250" height="1250"/>
<polygon points="884.03,539.25 854.17,510.96 854.07,510.86 854.07,510.86 810.94,469.85 825.69,533.76 719.13,619.74 762.9,661.76 
	879.97,543.35 "/>
</svg>
